<?xml version="1.0" encoding="UTF-8" standalone="no"?>
<svg xmlns="http://www.w3.org/2000/svg" width="1254" height="320" viewBox="55 450 1144 350" preserveAspectRatio="xMidYMid meet">
  <defs>
    <filter id="cardShadow" x="-20%" y="-20%" width="140%" height="140%">
      <feDropShadow dx="0" dy="8" stdDeviation="12" flood-color="#000000" flood-opacity="0.10"/>
    </filter>
  </defs>

  <!-- Divider lines -->
  <rect x="473" y="505" width="3" height="228" rx="1.5" fill="#9a9a9a"/>
  <rect x="779" y="505" width="3" height="228" rx="1.5" fill="#9a9a9a"/>

  <!-- Fully vector-traced foreground -->
  <path d="M 1082 671 L 1082 674 L 1079 677 L 1074 677 L 1072 675 L 1072 674 L 1075 671 L 1079 671 L 1080 670 Z M 124 671 L 126 670 L 127 672 L 125 673 Z M 1117 663 L 1121 663 L 1125 668 L 1125 672 L 1121 677 L 1117 677 L 1114 674 L 1114 666 Z M 1020 663 L 1024 663 L 1027 666 L 1027 674 L 1024 677 L 1020 677 L 1017 674 L 1017 666 Z M 236 664 L 234 666 L 234 676 L 236 678 L 240 678 L 242 677 L 242 665 L 240 664 Z M 204 664 L 204 678 L 210 678 L 212 676 L 212 666 L 209 664 Z M 165 664 L 165 670 L 171 670 L 172 669 L 172 665 L 170 664 Z M 145 664 L 143 666 L 143 676 L 145 678 L 149 678 L 151 676 L 151 666 L 149 664 Z M 1042 662 L 1046 663 L 1049 667 L 1049 673 L 1046 677 L 1041 677 L 1038 674 L 1038 666 L 1039 664 Z M 986 662 L 990 663 L 992 665 L 992 667 L 993 668 L 993 673 L 990 677 L 985 677 L 982 674 L 982 666 L 983 664 Z M 927 662 L 931 663 L 933 665 L 933 667 L 934 668 L 933 674 L 930 677 L 926 677 L 923 674 L 923 672 L 922 671 L 922 668 L 924 664 Z M 393 661 L 400 661 L 403 664 L 403 666 L 402 667 L 401 667 L 399 664 L 394 664 L 393 665 L 393 667 L 395 669 L 402 671 L 404 674 L 404 677 L 400 681 L 393 681 L 391 680 L 389 677 L 389 675 L 390 674 L 391 674 L 394 678 L 399 678 L 400 677 L 400 674 L 392 671 L 389 667 L 389 665 Z M 373 661 L 379 661 L 383 664 L 383 666 L 382 667 L 381 667 L 378 664 L 374 664 L 372 666 L 372 667 L 374 669 L 380 670 L 383 673 L 383 678 L 380 681 L 372 681 L 369 678 L 369 675 L 370 674 L 371 674 L 374 678 L 379 678 L 380 677 L 380 675 L 378 673 L 371 671 L 369 668 L 369 664 Z M 351 661 L 362 661 L 363 662 L 362 664 L 354 664 L 354 669 L 360 669 L 361 671 L 360 672 L 354 673 L 353 675 L 354 676 L 354 678 L 362 678 L 363 679 L 362 681 L 351 681 L 350 680 L 350 662 Z M 329 661 L 331 661 L 339 674 L 340 674 L 339 672 L 339 669 L 340 668 L 340 662 L 341 661 L 343 662 L 343 680 L 342 681 L 340 681 L 335 672 L 332 668 L 331 668 L 331 680 L 330 681 L 328 680 L 328 662 Z M 309 661 L 322 661 L 323 662 L 322 664 L 318 664 L 317 665 L 317 680 L 316 681 L 314 680 L 314 665 L 313 664 L 309 664 L 308 663 Z M 300 661 L 302 662 L 302 664 L 303 665 L 303 680 L 302 681 L 300 681 L 299 680 L 299 662 Z M 292 661 L 293 662 L 292 664 L 284 664 L 284 669 L 291 669 L 292 670 L 292 672 L 291 673 L 284 673 L 284 680 L 283 681 L 281 681 L 280 680 L 280 662 L 281 661 Z M 265 661 L 266 662 L 265 664 L 257 664 L 256 665 L 256 669 L 263 669 L 264 670 L 264 672 L 263 673 L 256 673 L 256 680 L 254 681 L 253 680 L 253 662 L 254 661 Z M 235 661 L 242 661 L 246 665 L 246 676 L 245 678 L 241 681 L 235 681 L 233 680 L 230 676 L 230 667 L 231 666 L 231 664 Z M 201 661 L 211 661 L 215 664 L 216 666 L 216 676 L 213 680 L 211 681 L 201 681 L 200 680 L 200 662 Z M 183 661 L 185 661 L 186 662 L 186 678 L 194 678 L 195 679 L 194 681 L 183 681 L 182 680 L 182 662 Z M 162 661 L 172 661 L 176 665 L 176 669 L 173 673 L 173 675 L 175 678 L 175 680 L 174 681 L 173 681 L 171 679 L 168 673 L 165 673 L 165 680 L 164 681 L 162 681 L 161 680 L 161 662 Z M 143 661 L 151 661 L 155 666 L 155 676 L 151 681 L 143 681 L 139 676 L 139 666 Z M 133 661 L 134 662 L 134 666 L 133 667 L 133 670 L 132 671 L 132 675 L 131 676 L 131 679 L 129 681 L 128 681 L 126 679 L 126 676 L 125 674 L 126 673 L 129 674 L 130 664 L 131 662 Z M 113 661 L 115 662 L 118 675 L 119 674 L 121 666 L 123 664 L 124 664 L 126 667 L 126 669 L 125 670 L 123 670 L 121 677 L 120 678 L 120 680 L 119 681 L 117 681 L 115 677 L 115 674 L 114 673 L 114 670 L 113 669 L 113 666 L 112 665 L 112 662 Z M 890 661 L 890 679 L 893 679 L 893 661 Z M 1133 661 L 1133 679 L 1136 679 L 1136 666 L 1139 663 L 1143 663 L 1145 665 L 1145 679 L 1148 679 L 1148 663 L 1144 660 Z M 1116 660 L 1111 664 L 1111 666 L 1110 667 L 1110 673 L 1113 678 L 1120 680 L 1126 677 L 1128 673 L 1128 667 L 1126 663 L 1124 661 L 1122 660 Z M 1104 660 L 1102 661 L 1102 679 L 1105 679 L 1105 663 L 1106 662 Z M 1071 662 L 1070 664 L 1071 666 L 1072 666 L 1076 662 L 1079 662 L 1082 665 L 1082 667 L 1081 668 L 1077 668 L 1076 669 L 1073 669 L 1071 670 L 1069 673 L 1069 676 L 1070 678 L 1074 680 L 1077 680 L 1081 678 L 1083 679 L 1086 679 L 1085 677 L 1085 663 L 1081 660 L 1075 660 Z M 1066 660 L 1063 660 L 1062 661 L 1057 661 L 1057 679 L 1060 679 L 1060 666 L 1063 663 L 1066 663 L 1067 662 Z M 1041 660 L 1037 662 L 1037 663 L 1035 665 L 1035 668 L 1034 670 L 1035 671 L 1035 675 L 1039 679 L 1045 680 L 1049 678 L 1051 676 L 1051 674 L 1052 673 L 1052 666 L 1048 661 L 1046 660 Z M 1024 660 L 1014 661 L 1014 686 L 1017 686 L 1017 680 L 1018 679 L 1020 679 L 1021 680 L 1026 679 L 1030 674 L 1030 666 L 1028 662 Z M 1009 660 L 1007 660 L 1006 661 L 1001 661 L 1001 679 L 1004 679 L 1004 666 L 1007 663 L 1010 663 L 1011 662 L 1011 661 Z M 985 660 L 981 662 L 981 663 L 979 665 L 979 667 L 978 668 L 978 672 L 979 673 L 979 675 L 983 679 L 988 680 L 989 679 L 993 678 L 995 676 L 995 674 L 996 673 L 996 666 L 992 661 L 990 661 L 989 660 Z M 926 660 L 921 663 L 919 667 L 919 673 L 922 678 L 926 680 L 929 680 L 935 677 L 937 673 L 937 667 L 936 666 L 936 664 L 933 661 L 931 661 L 930 660 Z M 899 661 L 899 679 L 902 679 L 902 666 L 905 663 L 909 663 L 911 665 L 911 679 L 914 679 L 914 663 L 910 660 Z M 874 660 L 870 663 L 870 668 L 873 670 L 879 671 L 882 674 L 882 675 L 880 677 L 875 677 L 872 674 L 869 674 L 869 675 L 871 678 L 875 680 L 879 680 L 880 679 L 882 679 L 884 677 L 885 673 L 882 669 L 874 667 L 873 666 L 873 664 L 875 662 L 878 662 L 881 665 L 884 665 L 883 662 L 879 660 Z M 862 660 L 861 661 L 861 679 L 864 679 L 864 660 Z M 845 659 L 847 660 L 847 662 L 849 666 L 849 668 L 848 669 L 842 669 L 841 668 L 843 661 Z M 1094 654 L 1092 656 L 1092 660 L 1090 661 L 1090 663 L 1092 664 L 1092 677 L 1093 679 L 1098 679 L 1098 677 L 1096 677 L 1095 676 L 1095 664 L 1097 663 L 1098 661 L 1097 661 L 1095 659 L 1095 654 Z M 103 654 L 103 688 L 414 688 L 414 654 Z M 1103 653 L 1102 654 L 1102 656 L 1105 656 L 1105 653 Z M 960 653 L 956 655 L 954 657 L 952 661 L 952 664 L 951 665 L 951 667 L 952 668 L 952 672 L 955 677 L 956 677 L 958 679 L 960 679 L 961 680 L 966 680 L 967 679 L 969 679 L 973 675 L 974 671 L 971 671 L 970 674 L 966 677 L 961 677 L 959 676 L 956 673 L 956 671 L 955 670 L 955 663 L 956 662 L 956 660 L 960 656 L 962 656 L 963 655 L 967 656 L 971 660 L 971 661 L 974 660 L 973 657 L 968 653 Z M 890 653 L 890 656 L 893 656 L 893 654 L 892 653 Z M 862 653 L 861 654 L 861 656 L 864 656 L 864 653 Z M 844 653 L 842 656 L 842 658 L 838 666 L 837 671 L 833 679 L 837 679 L 837 677 L 840 671 L 850 671 L 852 673 L 853 678 L 854 679 L 857 679 L 857 677 L 854 672 L 854 670 L 852 667 L 852 665 L 850 662 L 847 653 Z M 558 597 L 555 603 L 555 605 L 553 608 L 553 610 L 551 613 L 551 615 L 548 621 L 547 626 L 545 629 L 543 637 L 564 647 L 572 639 L 576 637 L 583 637 L 587 639 L 591 643 L 592 647 L 597 648 L 601 652 L 603 657 L 609 660 L 613 665 L 613 667 L 619 670 L 622 673 L 623 677 L 624 678 L 624 683 L 621 689 L 622 689 L 627 694 L 629 695 L 633 695 L 636 693 L 638 689 L 637 685 L 627 675 L 628 673 L 629 673 L 636 680 L 637 680 L 643 685 L 646 685 L 648 684 L 651 680 L 651 676 L 650 674 L 639 664 L 639 662 L 640 661 L 641 661 L 652 672 L 653 672 L 655 674 L 660 674 L 664 670 L 664 665 L 663 663 L 651 652 L 652 650 L 657 653 L 666 662 L 668 663 L 672 663 L 675 661 L 676 659 L 676 653 L 636 616 L 633 616 L 621 627 L 620 627 L 618 629 L 616 629 L 612 631 L 608 631 L 607 630 L 601 629 L 595 623 L 595 621 L 594 620 L 594 612 L 596 608 L 613 591 L 612 590 L 604 590 L 603 591 L 601 591 L 579 602 L 571 602 L 570 601 L 568 601 L 567 600 L 565 600 Z M 245 579 L 246 578 L 262 578 L 263 579 L 265 579 L 269 583 L 269 586 L 270 587 L 270 591 L 269 592 L 269 594 L 265 598 L 263 598 L 262 599 L 246 599 L 245 598 Z M 318 577 L 324 577 L 325 578 L 329 579 L 334 584 L 334 586 L 335 587 L 335 614 L 333 618 L 329 622 L 325 623 L 324 624 L 318 624 L 317 623 L 313 622 L 308 617 L 308 615 L 307 614 L 307 587 L 308 586 L 308 584 L 313 579 L 317 578 Z M 359 569 L 358 571 L 360 575 L 365 581 L 366 584 L 376 598 L 376 601 L 358 627 L 357 631 L 358 632 L 367 632 L 369 630 L 382 610 L 384 610 L 399 632 L 409 632 L 410 631 L 409 628 L 390 600 L 390 599 L 408 573 L 409 570 L 408 569 L 398 569 L 394 576 L 389 582 L 386 588 L 384 590 L 383 590 L 369 569 Z M 235 569 L 235 631 L 236 632 L 244 632 L 245 631 L 245 609 L 246 608 L 257 608 L 261 613 L 269 629 L 272 632 L 281 632 L 282 631 L 282 629 L 270 609 L 270 606 L 277 601 L 280 594 L 280 582 L 279 581 L 278 577 L 273 572 L 266 569 Z M 167 569 L 167 573 L 174 583 L 178 591 L 182 596 L 184 601 L 188 606 L 188 631 L 189 632 L 197 632 L 198 631 L 198 606 L 200 604 L 201 601 L 209 590 L 213 582 L 220 572 L 220 569 L 210 569 L 207 573 L 206 576 L 200 584 L 196 592 L 194 594 L 193 594 L 190 591 L 189 588 L 187 586 L 186 583 L 182 578 L 181 575 L 179 573 L 177 569 Z M 104 569 L 104 631 L 105 632 L 113 632 L 115 631 L 115 606 L 116 605 L 140 605 L 141 606 L 141 631 L 142 632 L 150 632 L 151 631 L 151 569 L 141 569 L 141 594 L 140 595 L 129 595 L 128 596 L 116 595 L 115 594 L 115 570 L 114 569 Z M 315 568 L 314 569 L 312 569 L 305 572 L 299 578 L 298 580 L 297 586 L 296 587 L 296 614 L 297 615 L 297 618 L 300 624 L 307 630 L 314 632 L 315 633 L 326 633 L 327 632 L 333 631 L 338 628 L 341 625 L 345 618 L 345 615 L 346 614 L 346 586 L 345 585 L 344 580 L 337 572 L 331 569 L 328 569 L 327 568 Z" fill="#050505" fill-rule="evenodd"/>
  <path d="M 576 645 L 569 652 L 568 654 L 568 658 L 569 660 L 573 662 L 579 661 L 580 662 L 579 664 L 579 669 L 582 672 L 587 672 L 588 671 L 590 671 L 591 672 L 590 674 L 590 679 L 592 681 L 594 682 L 598 682 L 602 678 L 603 678 L 604 680 L 601 683 L 601 688 L 604 691 L 610 691 L 617 683 L 617 679 L 616 677 L 613 675 L 609 675 L 607 676 L 606 675 L 606 668 L 603 665 L 598 665 L 593 670 L 592 670 L 591 668 L 596 663 L 596 658 L 591 654 L 589 654 L 584 658 L 583 658 L 582 656 L 586 651 L 584 646 L 581 644 L 578 644 Z M 1029 618 L 1030 617 L 1054 617 L 1055 618 L 1055 625 L 1053 627 L 1030 627 L 1029 626 Z M 1130 619 L 1130 620 L 1139 630 L 1140 633 L 1142 633 L 1147 630 L 1146 627 L 1136 616 L 1134 616 Z M 1093 616 L 1093 630 L 1094 631 L 1094 633 L 1098 636 L 1123 636 L 1124 635 L 1127 635 L 1130 632 L 1130 630 L 1131 629 L 1131 625 L 1127 624 L 1126 623 L 1124 623 L 1124 626 L 1121 630 L 1104 630 L 1101 628 L 1101 616 Z M 1089 618 L 1082 616 L 1081 620 L 1077 628 L 1075 630 L 1075 632 L 1082 634 L 1088 622 Z M 1022 611 L 1022 637 L 1029 637 L 1029 634 L 1030 633 L 1054 633 L 1055 634 L 1055 637 L 1062 637 L 1062 611 Z M 853 608 L 850 609 L 851 620 L 855 619 L 856 618 L 856 616 L 855 615 Z M 1093 602 L 1094 601 L 1128 601 L 1129 602 L 1129 605 L 1128 606 L 1094 606 L 1093 605 Z M 1021 601 L 1021 605 L 1022 606 L 1061 606 L 1062 605 L 1062 600 L 1022 600 Z M 1093 592 L 1094 591 L 1128 591 L 1129 592 L 1129 594 L 1127 596 L 1094 596 L 1093 595 Z M 1022 589 L 1022 595 L 1062 595 L 1062 590 L 1061 589 Z M 601 613 L 601 619 L 604 622 L 606 623 L 613 623 L 617 621 L 632 607 L 637 607 L 654 623 L 655 623 L 668 636 L 669 636 L 678 645 L 679 645 L 681 647 L 684 647 L 696 641 L 698 639 L 702 637 L 702 634 L 699 628 L 699 625 L 695 617 L 693 609 L 690 603 L 690 600 L 688 597 L 676 602 L 670 602 L 659 597 L 657 595 L 651 592 L 649 590 L 646 589 L 644 587 L 642 586 L 639 586 L 638 585 L 634 585 L 633 586 L 630 586 L 628 587 Z M 848 581 L 858 581 L 859 582 L 859 597 L 858 598 L 848 598 L 847 597 L 847 587 L 848 586 L 849 586 L 851 589 L 852 595 L 856 593 L 856 591 L 853 584 L 849 586 L 847 585 L 847 582 Z M 1093 581 L 1094 580 L 1128 580 L 1129 581 L 1129 584 L 1128 585 L 1094 585 L 1093 584 Z M 924 573 L 924 580 L 925 581 L 947 581 L 948 582 L 948 594 L 947 595 L 920 595 L 919 596 L 919 602 L 920 603 L 944 603 L 945 604 L 945 607 L 942 613 L 937 619 L 936 619 L 931 624 L 923 628 L 917 629 L 917 631 L 919 633 L 921 637 L 928 635 L 940 628 L 946 622 L 946 621 L 950 616 L 951 612 L 952 611 L 953 611 L 955 613 L 956 616 L 958 618 L 960 622 L 966 628 L 978 635 L 983 636 L 983 635 L 987 630 L 987 628 L 981 627 L 973 623 L 970 620 L 969 620 L 962 612 L 959 606 L 959 604 L 960 603 L 984 603 L 985 602 L 985 595 L 957 595 L 956 594 L 956 582 L 957 581 L 980 581 L 980 573 Z M 1018 578 L 1018 584 L 1065 584 L 1066 585 L 1067 584 L 1067 578 L 1048 578 L 1047 577 L 1046 571 L 1043 567 L 1036 569 L 1039 576 L 1038 578 Z M 1012 567 L 1011 567 L 1010 569 L 1009 574 L 1006 579 L 1006 581 L 1001 591 L 995 599 L 995 601 L 998 606 L 999 606 L 1003 601 L 1005 602 L 1005 637 L 1012 637 L 1012 584 L 1019 570 L 1015 569 Z M 868 579 L 868 586 L 907 586 L 907 579 L 891 579 L 890 577 L 892 576 L 890 573 L 890 571 L 888 567 L 882 568 L 881 569 L 884 576 L 884 578 L 883 579 Z M 840 576 L 840 597 L 839 598 L 835 598 L 834 599 L 835 601 L 835 605 L 839 605 L 840 606 L 840 618 L 839 619 L 839 622 L 838 623 L 837 628 L 834 632 L 836 634 L 837 634 L 840 637 L 845 627 L 845 624 L 846 623 L 846 617 L 847 616 L 847 605 L 848 604 L 858 604 L 859 605 L 859 627 L 857 629 L 853 629 L 854 635 L 856 636 L 857 635 L 861 635 L 865 633 L 867 635 L 871 637 L 877 630 L 880 623 L 880 619 L 881 618 L 881 600 L 882 599 L 889 599 L 890 600 L 890 631 L 891 633 L 893 635 L 905 635 L 907 633 L 908 631 L 908 626 L 909 625 L 908 623 L 904 622 L 903 621 L 902 622 L 902 628 L 901 629 L 899 629 L 897 627 L 897 593 L 875 593 L 875 610 L 874 611 L 874 617 L 873 618 L 873 621 L 872 622 L 871 626 L 869 628 L 869 629 L 867 631 L 866 631 L 865 630 L 865 605 L 866 604 L 866 598 L 865 597 L 865 575 L 856 575 L 855 573 L 857 570 L 857 568 L 853 568 L 852 567 L 850 567 L 849 569 L 849 572 L 847 575 L 841 575 Z M 1103 566 L 1099 574 L 1085 574 L 1085 611 L 1086 612 L 1109 612 L 1110 614 L 1108 616 L 1108 617 L 1111 620 L 1113 624 L 1115 625 L 1117 623 L 1120 622 L 1119 619 L 1114 614 L 1115 612 L 1136 612 L 1136 574 L 1109 574 L 1108 572 L 1111 569 L 1108 567 L 1105 567 Z" fill="#0756ad" fill-rule="evenodd"/>
</svg>
